<svg width="57" height="56" viewBox="0 0 57 56" fill="none" xmlns="http://www.w3.org/2000/svg">
<path d="M41.4893 14.3919C37.9496 11.146 33.356 9.36675 28.4828 9.37097C19.7125 9.37851 12.1411 15.2677 10.0506 23.437C9.89846 24.0317 9.35746 24.4516 8.73144 24.4516H2.24326C1.39429 24.4516 0.749357 23.6968 0.906401 22.8797C3.35627 10.1387 14.7785 0.5 28.5 0.5C36.0236 0.5 42.856 3.39815 47.8973 8.11628L51.9411 4.15595C53.653 2.47945 56.58 3.66682 56.58 6.03781V20.9032C56.58 22.373 55.3634 23.5645 53.8626 23.5645H38.6836C36.2626 23.5645 35.0502 20.698 36.7621 19.0214L41.4893 14.3919ZM3.1374 32.4355H18.3163C20.7373 32.4355 21.9498 35.302 20.2379 36.9786L15.5107 41.6082C19.0504 44.8542 23.6443 46.6335 28.5176 46.6291C37.2834 46.6214 44.8578 40.7362 46.9493 32.5632C47.1015 31.9685 47.6425 31.5486 48.2685 31.5486H54.7568C55.6058 31.5486 56.2507 32.3034 56.0937 33.1205C53.6437 45.8612 42.2215 55.5 28.5 55.5C20.9764 55.5 14.144 52.6019 9.1027 47.8837L5.05884 51.8441C3.34698 53.5206 0.419983 52.3332 0.419983 49.9622V35.0968C0.419983 33.627 1.63659 32.4355 3.1374 32.4355Z" fill="#E32879"/>
</svg>
