<svg width="72" height="62" viewBox="0 0 72 62" fill="none" xmlns="http://www.w3.org/2000/svg">
<path d="M45.0276 29.3169L38.0389 43.0724C37.1952 44.7468 34.7485 44.6915 33.9751 42.9893L25.974 25.5113L21.7555 35.4335H8.52347L34.186 61.2423C35.1844 62.2526 36.8015 62.2526 37.7999 61.2423L63.4765 35.4335H48.1352L45.0276 29.3169ZM66.6123 5.80526L66.2748 5.45929C59.033 -1.81976 47.179 -1.81976 39.9232 5.45929L36 9.41711L32.0768 5.47313C24.835 -1.81977 12.967 -1.81977 5.7252 5.47313L5.38771 5.80526C-1.46033 12.6968 -1.75562 23.6708 4.36121 31.0052H18.7604L23.8085 19.0764C24.5679 17.2912 27.1271 17.2497 27.9427 19.021L36.1266 36.9142L43.0168 23.3663C43.8464 21.7334 46.2088 21.7334 47.0384 23.3663L50.9194 31.0052H67.6388C73.7556 23.6708 73.4603 12.6968 66.6123 5.80526Z" fill="#E32879"/>
</svg>
