<svg width="62" height="62" viewBox="0 0 62 62" fill="none" xmlns="http://www.w3.org/2000/svg">
<path d="M61.9188 2.5192C60.5131 7.20585 57.7644 16.0456 54.4953 25.2486C55.3429 25.5021 56.1185 25.733 56.7485 25.9259C57.023 26.0096 57.2757 26.153 57.4883 26.3459C57.7009 26.5388 57.8681 26.7763 57.9781 27.0414C58.088 27.3066 58.1379 27.5928 58.1242 27.8795C58.1105 28.1662 58.0335 28.4463 57.8987 28.6997C55.2218 33.8215 47.8854 47.2022 40.6455 54.6627C40.5244 54.7951 40.4033 54.9654 40.2822 55.0865C38.0917 57.2775 35.4911 59.0157 32.6289 60.2017C29.7666 61.3877 26.6988 61.9984 23.6005 61.9988C20.5023 61.9992 17.4343 61.3893 14.5717 60.204C11.7092 59.0188 9.10813 57.2813 6.91706 55.0908C4.72599 52.9002 2.98782 50.2996 1.80181 47.4374C0.615796 44.5751 0.00515818 41.5073 0.00476094 38.409C0.00436369 35.3108 0.614215 32.2428 1.79949 29.3803C2.98477 26.5177 4.72227 23.9166 6.91278 21.7256C7.03385 21.6045 7.20411 21.4834 7.33654 21.3623C14.7959 14.1081 28.1615 6.78202 33.2958 4.10664C33.5492 3.97185 33.8293 3.89483 34.116 3.88111C34.4027 3.86739 34.6889 3.9173 34.954 4.02727C35.2191 4.13724 35.4566 4.30454 35.6494 4.51716C35.8422 4.72977 35.9856 4.98244 36.0692 5.25702C36.2622 5.87383 36.493 6.66093 36.7465 7.50857C45.9368 4.23909 54.7867 1.48992 59.4726 0.0860031C59.8112 -0.0164079 60.1712 -0.0252665 60.5144 0.0603668C60.8576 0.146 61.1713 0.322932 61.4221 0.572395C61.6728 0.821858 61.8514 1.13455 61.9389 1.4773C62.0263 1.82005 62.0194 2.18008 61.9188 2.5192ZM38.7442 38.7504C38.7438 35.6853 37.8345 32.6892 36.1313 30.1409C34.4282 27.5927 32.0076 25.6066 29.1758 24.434C26.3439 23.2613 23.2279 22.9547 20.2218 23.553C17.2157 24.1512 14.4545 25.6274 12.2873 27.7948C10.1202 29.9623 8.64438 32.7237 8.04657 35.7299C7.44877 38.7361 7.7558 41.8521 8.92885 44.6837C10.1019 47.5154 12.0883 49.9357 14.6368 51.6385C17.1853 53.3413 20.1815 54.2502 23.2466 54.2502C25.282 54.2503 27.2974 53.8494 29.1779 53.0704C31.0583 52.2915 32.7669 51.1498 34.206 49.7104C35.6451 48.2711 36.7866 46.5624 37.5653 44.6818C38.344 42.8013 38.7446 40.7858 38.7442 38.7504ZM23.2466 34.8754C23.2465 35.6417 23.0191 36.3907 22.5934 37.0278C22.1676 37.6648 21.5624 38.1614 20.8545 38.4545C20.1465 38.7477 19.3675 38.8243 18.616 38.6748C17.8645 38.5252 17.1742 38.1562 16.6324 37.6143C16.0906 37.0724 15.7216 36.3821 15.5722 35.6305C15.4227 34.879 15.4995 34.1 15.7927 33.3921C16.086 32.6842 16.5826 32.0791 17.2197 31.6534C17.8569 31.2277 18.6059 31.0005 19.3722 31.0005C19.8812 30.9999 20.3853 31.0997 20.8556 31.2943C21.326 31.4888 21.7534 31.7742 22.1133 32.1342C22.4732 32.4941 22.7585 32.9215 22.953 33.3919C23.1475 33.8623 23.2472 34.3664 23.2466 34.8754H23.2466ZM27.121 44.5628C27.1209 44.9459 27.0073 45.3204 26.7944 45.639C26.5815 45.9575 26.2789 46.2058 25.9249 46.3523C25.5709 46.4989 25.1814 46.5373 24.8057 46.4625C24.4299 46.3877 24.0848 46.2032 23.8139 45.9322C23.543 45.6613 23.3585 45.3161 23.2838 44.9404C23.2091 44.5646 23.2474 44.1751 23.3941 43.8211C23.5407 43.4672 23.789 43.1646 24.1076 42.9518C24.4261 42.7389 24.8006 42.6253 25.1838 42.6253C25.6971 42.627 26.1889 42.8317 26.5518 43.1947C26.9148 43.5577 27.1194 44.0495 27.121 44.5628H27.121Z" fill="#E32879"/>
</svg>
